# xmcd
#
# Track frame offsets: 
#        150
#        17756
#        35411
#        50748
#        67052
#        83998
#        102006
#        121994
#        140283
#        159960
#        178180
#        193745
#        215614
#        234080
#        252482
#        270134
#
# Disc length: 3816 seconds
#
# Revision: 0
# Processed by: cddbd v1.5.2PL0 Copyright (c) Steve Scherf et al.
# Submitted via: ExactAudioCopyFreeDBPlugin 1.0
#
DISCID=da0ee610
DTITLE=Various Artist - Il Attendent Quoi De Nous ?
DYEAR=2005
DGENRE=Hip-Hop
TTITLE0=Assault Final
TTITLE1=400 Yens - Ghetto Music
TTITLE2=L'arsen - Fatal
TTITLE3=Tsu Tone - Pt'Tite Fleur
TTITLE4=Assault Paris
TTITLE5=Fréro and Kadaz (La Mixture) - Beton
TTITLE6=12 Kawa - Woop Woop
TTITLE7=Alif (Hardlife) - La France D'En Bas
TTITLE8=Vanzetti - Feu Mal Eteint
TTITLE9=Sang Pleur and Kuembe - Black T-Rorist
TTITLE10=Sang Pleur and Infame - Ils Attendent Quoi ?
TTITLE11=Sale Equipe - On Arrive !
TTITLE12=Mino - Le Fruit De Mon Epoque
TTITLE13=La Swija - Expension
TTITLE14=Beretta Feat' Algerino - Recation Instinctive
TTITLE15=Réalité Anonyme - J'Crois
EXTD=
EXTT0=
EXTT1=
EXTT2=
EXTT3=
EXTT4=
EXTT5=
EXTT6=
EXTT7=
EXTT8=
EXTT9=
EXTT10=
EXTT11=
EXTT12=
EXTT13=
EXTT14=
EXTT15=
PLAYORDER=
